<svg width="192" height="438" viewBox="0 0 192 438" fill="none" xmlns="http://www.w3.org/2000/svg">
<mask id="mask0_2_2014" style="mask-type:alpha" maskUnits="userSpaceOnUse" x="36" y="10" width="362" height="390">
<path opacity="0.69" d="M117.318 115.312C317.514 -59.905 390.267 34.0099 397.407 44.4408C397.834 45.0647 397.996 45.7462 397.989 46.5022L396.836 170.403C395.445 319.951 264.396 455.175 137.327 376.308C95.8478 350.563 60.7169 314.121 43.045 262.556C10.3766 167.233 101.01 129.585 117.318 115.312Z" fill="#F1D8C0" fill-opacity="0.33"/>
</mask>
<g mask="url(#mask0_2_2014)">
<circle cx="5.07203" cy="5.07203" r="5.07203" transform="matrix(-1 0 0 1 198.051 0)" fill="#F1D8C0" fill-opacity="0.33"/>
<circle cx="5.07203" cy="5.07203" r="5.07203" transform="matrix(-1 0 0 1 181.144 0)" fill="#F1D8C0" fill-opacity="0.33"/>
<circle cx="5.07203" cy="5.07203" r="5.07203" transform="matrix(-1 0 0 1 164.237 0)" fill="#F1D8C0" fill-opacity="0.33"/>
<circle cx="5.07203" cy="5.07203" r="5.07203" transform="matrix(-1 0 0 1 147.331 0)" fill="#F1D8C0" fill-opacity="0.33"/>
<circle cx="5.07203" cy="5.07203" r="5.07203" transform="matrix(-1 0 0 1 130.424 0)" fill="#F1D8C0" fill-opacity="0.33"/>
<circle cx="5.07203" cy="5.07203" r="5.07203" transform="matrix(-1 0 0 1 113.517 0)" fill="#F1D8C0" fill-opacity="0.33"/>
<circle cx="5.07203" cy="5.07203" r="5.07203" transform="matrix(-1 0 0 1 96.6102 0)" fill="#F1D8C0" fill-opacity="0.33"/>
<circle cx="5.07203" cy="5.07203" r="5.07203" transform="matrix(-1 0 0 1 79.7034 0)" fill="#F1D8C0" fill-opacity="0.33"/>
<circle cx="5.07203" cy="5.07203" r="5.07203" transform="matrix(-1 0 0 1 62.7966 0)" fill="#F1D8C0" fill-opacity="0.33"/>
<circle cx="5.07203" cy="5.07203" r="5.07203" transform="matrix(-1 0 0 1 45.8898 0)" fill="#F1D8C0" fill-opacity="0.33"/>
<circle cx="5.07203" cy="5.07203" r="5.07203" transform="matrix(-1 0 0 1 198.051 16.9068)" fill="#F1D8C0" fill-opacity="0.33"/>
<circle cx="5.07203" cy="5.07203" r="5.07203" transform="matrix(-1 0 0 1 181.144 16.9068)" fill="#F1D8C0" fill-opacity="0.33"/>
<circle cx="5.07203" cy="5.07203" r="5.07203" transform="matrix(-1 0 0 1 164.237 16.9068)" fill="#F1D8C0" fill-opacity="0.33"/>
<circle cx="5.07203" cy="5.07203" r="5.07203" transform="matrix(-1 0 0 1 147.331 16.9068)" fill="#F1D8C0" fill-opacity="0.33"/>
<circle cx="5.07203" cy="5.07203" r="5.07203" transform="matrix(-1 0 0 1 130.424 16.9068)" fill="#F1D8C0" fill-opacity="0.33"/>
<circle cx="5.07203" cy="5.07203" r="5.07203" transform="matrix(-1 0 0 1 113.517 16.9068)" fill="#F1D8C0" fill-opacity="0.33"/>
<circle cx="5.07203" cy="5.07203" r="5.07203" transform="matrix(-1 0 0 1 96.6102 16.9068)" fill="#F1D8C0" fill-opacity="0.33"/>
<circle cx="5.07203" cy="5.07203" r="5.07203" transform="matrix(-1 0 0 1 79.7034 16.9068)" fill="#F1D8C0" fill-opacity="0.33"/>
<circle cx="5.07203" cy="5.07203" r="5.07203" transform="matrix(-1 0 0 1 62.7966 16.9068)" fill="#F1D8C0" fill-opacity="0.33"/>
<circle cx="5.07203" cy="5.07203" r="5.07203" transform="matrix(-1 0 0 1 45.8898 16.9068)" fill="#F1D8C0" fill-opacity="0.33"/>
<circle cx="5.07203" cy="5.07203" r="5.07203" transform="matrix(-1 0 0 1 198.051 33.8135)" fill="#F1D8C0" fill-opacity="0.33"/>
<circle cx="5.07203" cy="5.07203" r="5.07203" transform="matrix(-1 0 0 1 181.144 33.8135)" fill="#F1D8C0" fill-opacity="0.33"/>
<circle cx="5.07203" cy="5.07203" r="5.07203" transform="matrix(-1 0 0 1 164.237 33.8135)" fill="#F1D8C0" fill-opacity="0.33"/>
<circle cx="5.07203" cy="5.07203" r="5.07203" transform="matrix(-1 0 0 1 147.331 33.8135)" fill="#F1D8C0" fill-opacity="0.33"/>
<circle cx="5.07203" cy="5.07203" r="5.07203" transform="matrix(-1 0 0 1 130.424 33.8135)" fill="#F1D8C0" fill-opacity="0.33"/>
<circle cx="5.07203" cy="5.07203" r="5.07203" transform="matrix(-1 0 0 1 113.517 33.8135)" fill="#F1D8C0" fill-opacity="0.33"/>
<circle cx="5.07203" cy="5.07203" r="5.07203" transform="matrix(-1 0 0 1 96.6102 33.8135)" fill="#F1D8C0" fill-opacity="0.33"/>
<circle cx="5.07203" cy="5.07203" r="5.07203" transform="matrix(-1 0 0 1 79.7034 33.8135)" fill="#F1D8C0" fill-opacity="0.33"/>
<circle cx="5.07203" cy="5.07203" r="5.07203" transform="matrix(-1 0 0 1 62.7966 33.8135)" fill="#F1D8C0" fill-opacity="0.33"/>
<circle cx="5.07203" cy="5.07203" r="5.07203" transform="matrix(-1 0 0 1 45.8898 33.8135)" fill="#F1D8C0" fill-opacity="0.33"/>
<circle cx="5.07203" cy="5.07203" r="5.07203" transform="matrix(-1 0 0 1 181.144 50.7203)" fill="#F1D8C0" fill-opacity="0.33"/>
<circle cx="5.07203" cy="5.07203" r="5.07203" transform="matrix(-1 0 0 1 164.237 50.7203)" fill="#F1D8C0" fill-opacity="0.33"/>
<circle cx="5.07203" cy="5.07203" r="5.07203" transform="matrix(-1 0 0 1 147.331 50.7203)" fill="#F1D8C0" fill-opacity="0.33"/>
<circle cx="5.07203" cy="5.07203" r="5.07203" transform="matrix(-1 0 0 1 130.424 50.7203)" fill="#F1D8C0" fill-opacity="0.33"/>
<circle cx="5.07203" cy="5.07203" r="5.07203" transform="matrix(-1 0 0 1 113.517 50.7203)" fill="#F1D8C0" fill-opacity="0.33"/>
<circle cx="5.07203" cy="5.07203" r="5.07203" transform="matrix(-1 0 0 1 96.6102 50.7203)" fill="#F1D8C0" fill-opacity="0.33"/>
<circle cx="5.07203" cy="5.07203" r="5.07203" transform="matrix(-1 0 0 1 79.7034 50.7203)" fill="#F1D8C0" fill-opacity="0.33"/>
<circle cx="5.07203" cy="5.07203" r="5.07203" transform="matrix(-1 0 0 1 62.7966 50.7203)" fill="#F1D8C0" fill-opacity="0.33"/>
<circle cx="5.07203" cy="5.07203" r="5.07203" transform="matrix(-1 0 0 1 45.8898 50.7203)" fill="#F1D8C0" fill-opacity="0.33"/>
<circle cx="5.07203" cy="5.07203" r="5.07203" transform="matrix(-1 0 0 1 198.051 67.6271)" fill="#F1D8C0" fill-opacity="0.33"/>
<circle cx="5.07203" cy="5.07203" r="5.07203" transform="matrix(-1 0 0 1 164.237 67.6271)" fill="#F1D8C0" fill-opacity="0.33"/>
<circle cx="5.07203" cy="5.07203" r="5.07203" transform="matrix(-1 0 0 1 147.331 67.6271)" fill="#F1D8C0" fill-opacity="0.33"/>
<circle cx="5.07203" cy="5.07203" r="5.07203" transform="matrix(-1 0 0 1 130.424 67.6271)" fill="#F1D8C0" fill-opacity="0.33"/>
<circle cx="5.07203" cy="5.07203" r="5.07203" transform="matrix(-1 0 0 1 113.517 67.6271)" fill="#F1D8C0" fill-opacity="0.33"/>
<circle cx="5.07203" cy="5.07203" r="5.07203" transform="matrix(-1 0 0 1 96.6102 67.6271)" fill="#F1D8C0" fill-opacity="0.33"/>
<circle cx="5.07203" cy="5.07203" r="5.07203" transform="matrix(-1 0 0 1 79.7034 67.6271)" fill="#F1D8C0" fill-opacity="0.33"/>
<circle cx="5.07203" cy="5.07203" r="5.07203" transform="matrix(-1 0 0 1 62.7966 67.6271)" fill="#F1D8C0" fill-opacity="0.33"/>
<circle cx="5.07203" cy="5.07203" r="5.07203" transform="matrix(-1 0 0 1 45.8898 67.6271)" fill="#F1D8C0" fill-opacity="0.33"/>
<circle cx="5.07203" cy="5.07203" r="5.07203" transform="matrix(-1 0 0 1 198.051 84.5339)" fill="#F1D8C0" fill-opacity="0.33"/>
<circle cx="5.07203" cy="5.07203" r="5.07203" transform="matrix(-1 0 0 1 181.144 84.5339)" fill="#F1D8C0" fill-opacity="0.33"/>
<circle cx="5.07203" cy="5.07203" r="5.07203" transform="matrix(-1 0 0 1 164.237 84.5339)" fill="#F1D8C0" fill-opacity="0.33"/>
<circle cx="5.07203" cy="5.07203" r="5.07203" transform="matrix(-1 0 0 1 130.424 84.5339)" fill="#F1D8C0" fill-opacity="0.33"/>
<circle cx="5.07203" cy="5.07203" r="5.07203" transform="matrix(-1 0 0 1 113.517 84.5339)" fill="#F1D8C0" fill-opacity="0.33"/>
<circle cx="5.07203" cy="5.07203" r="5.07203" transform="matrix(-1 0 0 1 96.6102 84.5339)" fill="#F1D8C0" fill-opacity="0.33"/>
<circle cx="5.07203" cy="5.07203" r="5.07203" transform="matrix(-1 0 0 1 79.7034 84.5339)" fill="#F1D8C0" fill-opacity="0.33"/>
<circle cx="5.07203" cy="5.07203" r="5.07203" transform="matrix(-1 0 0 1 62.7966 84.5339)" fill="#F1D8C0" fill-opacity="0.33"/>
<circle cx="5.07203" cy="5.07203" r="5.07203" transform="matrix(-1 0 0 1 45.8898 84.5339)" fill="#F1D8C0" fill-opacity="0.33"/>
<circle cx="5.07203" cy="5.07203" r="5.07203" transform="matrix(-1 0 0 1 198.051 101.441)" fill="#F1D8C0" fill-opacity="0.33"/>
<circle cx="5.07203" cy="5.07203" r="5.07203" transform="matrix(-1 0 0 1 181.144 101.441)" fill="#F1D8C0" fill-opacity="0.33"/>
<circle cx="5.07203" cy="5.07203" r="5.07203" transform="matrix(-1 0 0 1 164.237 101.441)" fill="#F1D8C0" fill-opacity="0.33"/>
<circle cx="5.07203" cy="5.07203" r="5.07203" transform="matrix(-1 0 0 1 147.331 101.441)" fill="#F1D8C0" fill-opacity="0.33"/>
<circle cx="5.07203" cy="5.07203" r="5.07203" transform="matrix(-1 0 0 1 113.517 101.441)" fill="#F1D8C0" fill-opacity="0.33"/>
<circle cx="5.07203" cy="5.07203" r="5.07203" transform="matrix(-1 0 0 1 96.6102 101.441)" fill="#F1D8C0" fill-opacity="0.33"/>
<circle cx="5.07203" cy="5.07203" r="5.07203" transform="matrix(-1 0 0 1 79.7034 101.441)" fill="#F1D8C0" fill-opacity="0.33"/>
<circle cx="5.07203" cy="5.07203" r="5.07203" transform="matrix(-1 0 0 1 62.7966 101.441)" fill="#F1D8C0" fill-opacity="0.33"/>
<circle cx="5.07203" cy="5.07203" r="5.07203" transform="matrix(-1 0 0 1 45.8898 101.441)" fill="#F1D8C0" fill-opacity="0.33"/>
<circle cx="5.07203" cy="5.07203" r="5.07203" transform="matrix(-1 0 0 1 198.051 118.347)" fill="#F1D8C0" fill-opacity="0.33"/>
<circle cx="5.07203" cy="5.07203" r="5.07203" transform="matrix(-1 0 0 1 181.144 118.347)" fill="#F1D8C0" fill-opacity="0.33"/>
<circle cx="5.07203" cy="5.07203" r="5.07203" transform="matrix(-1 0 0 1 164.237 118.347)" fill="#F1D8C0" fill-opacity="0.33"/>
<circle cx="5.07203" cy="5.07203" r="5.07203" transform="matrix(-1 0 0 1 147.331 118.347)" fill="#F1D8C0" fill-opacity="0.33"/>
<circle cx="5.07203" cy="5.07203" r="5.07203" transform="matrix(-1 0 0 1 130.424 118.347)" fill="#F1D8C0" fill-opacity="0.33"/>
<circle cx="5.07203" cy="5.07203" r="5.07203" transform="matrix(-1 0 0 1 96.6102 118.347)" fill="#F1D8C0" fill-opacity="0.33"/>
<circle cx="5.07203" cy="5.07203" r="5.07203" transform="matrix(-1 0 0 1 79.7034 118.347)" fill="#F1D8C0" fill-opacity="0.33"/>
<circle cx="5.07203" cy="5.07203" r="5.07203" transform="matrix(-1 0 0 1 62.7966 118.347)" fill="#F1D8C0" fill-opacity="0.33"/>
<circle cx="5.07203" cy="5.07203" r="5.07203" transform="matrix(-1 0 0 1 45.8898 118.347)" fill="#F1D8C0" fill-opacity="0.33"/>
<circle cx="5.07203" cy="5.07203" r="5.07203" transform="matrix(-1 0 0 1 198.051 135.254)" fill="#F1D8C0" fill-opacity="0.33"/>
<circle cx="5.07203" cy="5.07203" r="5.07203" transform="matrix(-1 0 0 1 181.144 135.254)" fill="#F1D8C0" fill-opacity="0.33"/>
<circle cx="5.07203" cy="5.07203" r="5.07203" transform="matrix(-1 0 0 1 164.237 135.254)" fill="#F1D8C0" fill-opacity="0.33"/>
<circle cx="5.07203" cy="5.07203" r="5.07203" transform="matrix(-1 0 0 1 147.331 135.254)" fill="#F1D8C0" fill-opacity="0.33"/>
<circle cx="5.07203" cy="5.07203" r="5.07203" transform="matrix(-1 0 0 1 130.424 135.254)" fill="#F1D8C0" fill-opacity="0.33"/>
<circle cx="5.07203" cy="5.07203" r="5.07203" transform="matrix(-1 0 0 1 113.517 135.254)" fill="#F1D8C0" fill-opacity="0.33"/>
<circle cx="5.07203" cy="5.07203" r="5.07203" transform="matrix(-1 0 0 1 96.6102 135.254)" fill="#F1D8C0" fill-opacity="0.33"/>
<circle cx="5.07203" cy="5.07203" r="5.07203" transform="matrix(-1 0 0 1 62.7966 135.254)" fill="#F1D8C0" fill-opacity="0.33"/>
<circle cx="5.07203" cy="5.07203" r="5.07203" transform="matrix(-1 0 0 1 45.8898 135.254)" fill="#F1D8C0" fill-opacity="0.33"/>
<circle cx="5.07203" cy="5.07203" r="5.07203" transform="matrix(-1 0 0 1 198.051 152.161)" fill="#F1D8C0" fill-opacity="0.33"/>
<circle cx="5.07203" cy="5.07203" r="5.07203" transform="matrix(-1 0 0 1 181.144 152.161)" fill="#F1D8C0" fill-opacity="0.33"/>
<circle cx="5.07203" cy="5.07203" r="5.07203" transform="matrix(-1 0 0 1 164.237 152.161)" fill="#F1D8C0" fill-opacity="0.33"/>
<circle cx="5.07203" cy="5.07203" r="5.07203" transform="matrix(-1 0 0 1 147.331 152.161)" fill="#F1D8C0" fill-opacity="0.33"/>
<circle cx="5.07203" cy="5.07203" r="5.07203" transform="matrix(-1 0 0 1 130.424 152.161)" fill="#F1D8C0" fill-opacity="0.33"/>
<circle cx="5.07203" cy="5.07203" r="5.07203" transform="matrix(-1 0 0 1 113.517 152.161)" fill="#F1D8C0" fill-opacity="0.33"/>
<circle cx="5.07203" cy="5.07203" r="5.07203" transform="matrix(-1 0 0 1 96.6102 152.161)" fill="#F1D8C0" fill-opacity="0.33"/>
<circle cx="5.07203" cy="5.07203" r="5.07203" transform="matrix(-1 0 0 1 79.7034 152.161)" fill="#F1D8C0" fill-opacity="0.33"/>
<circle cx="5.07203" cy="5.07203" r="5.07203" transform="matrix(-1 0 0 1 45.8898 152.161)" fill="#F1D8C0" fill-opacity="0.33"/>
<circle cx="5.07203" cy="5.07203" r="5.07203" transform="matrix(-1 0 0 1 198.051 169.068)" fill="#F1D8C0" fill-opacity="0.33"/>
<circle cx="5.07203" cy="5.07203" r="5.07203" transform="matrix(-1 0 0 1 181.144 169.068)" fill="#F1D8C0" fill-opacity="0.33"/>
<circle cx="5.07203" cy="5.07203" r="5.07203" transform="matrix(-1 0 0 1 164.237 169.068)" fill="#F1D8C0" fill-opacity="0.33"/>
<circle cx="5.07203" cy="5.07203" r="5.07203" transform="matrix(-1 0 0 1 147.331 169.068)" fill="#F1D8C0" fill-opacity="0.33"/>
<circle cx="5.07203" cy="5.07203" r="5.07203" transform="matrix(-1 0 0 1 130.424 169.068)" fill="#F1D8C0" fill-opacity="0.33"/>
<circle cx="5.07203" cy="5.07203" r="5.07203" transform="matrix(-1 0 0 1 113.517 169.068)" fill="#F1D8C0" fill-opacity="0.33"/>
<circle cx="5.07203" cy="5.07203" r="5.07203" transform="matrix(-1 0 0 1 96.6102 169.068)" fill="#F1D8C0" fill-opacity="0.33"/>
<circle cx="5.07203" cy="5.07203" r="5.07203" transform="matrix(-1 0 0 1 79.7034 169.068)" fill="#F1D8C0" fill-opacity="0.33"/>
<circle cx="5.07203" cy="5.07203" r="5.07203" transform="matrix(-1 0 0 1 62.7966 169.068)" fill="#F1D8C0" fill-opacity="0.33"/>
<circle cx="5.07203" cy="5.07203" r="5.07203" transform="matrix(-1 0 0 1 45.8898 169.068)" fill="#F1D8C0" fill-opacity="0.33"/>
<circle cx="5.07203" cy="5.07203" r="5.07203" transform="matrix(-1 0 0 1 198.051 185.975)" fill="#F1D8C0" fill-opacity="0.33"/>
<circle cx="5.07203" cy="5.07203" r="5.07203" transform="matrix(-1 0 0 1 181.144 185.975)" fill="#F1D8C0" fill-opacity="0.33"/>
<circle cx="5.07203" cy="5.07203" r="5.07203" transform="matrix(-1 0 0 1 164.237 185.975)" fill="#F1D8C0" fill-opacity="0.33"/>
<circle cx="5.07203" cy="5.07203" r="5.07203" transform="matrix(-1 0 0 1 147.331 185.975)" fill="#F1D8C0" fill-opacity="0.33"/>
<circle cx="5.07203" cy="5.07203" r="5.07203" transform="matrix(-1 0 0 1 130.424 185.975)" fill="#F1D8C0" fill-opacity="0.33"/>
<circle cx="5.07203" cy="5.07203" r="5.07203" transform="matrix(-1 0 0 1 113.517 185.975)" fill="#F1D8C0" fill-opacity="0.33"/>
<circle cx="5.07203" cy="5.07203" r="5.07203" transform="matrix(-1 0 0 1 96.6102 185.975)" fill="#F1D8C0" fill-opacity="0.33"/>
<circle cx="5.07203" cy="5.07203" r="5.07203" transform="matrix(-1 0 0 1 79.7034 185.975)" fill="#F1D8C0" fill-opacity="0.33"/>
<circle cx="5.07203" cy="5.07203" r="5.07203" transform="matrix(-1 0 0 1 62.7966 185.975)" fill="#F1D8C0" fill-opacity="0.33"/>
<circle cx="5.07203" cy="5.07203" r="5.07203" transform="matrix(-1 0 0 1 198.051 202.881)" fill="#F1D8C0" fill-opacity="0.33"/>
<circle cx="5.07203" cy="5.07203" r="5.07203" transform="matrix(-1 0 0 1 181.144 202.881)" fill="#F1D8C0" fill-opacity="0.33"/>
<circle cx="5.07203" cy="5.07203" r="5.07203" transform="matrix(-1 0 0 1 164.237 202.881)" fill="#F1D8C0" fill-opacity="0.33"/>
<circle cx="5.07203" cy="5.07203" r="5.07203" transform="matrix(-1 0 0 1 147.331 202.881)" fill="#F1D8C0" fill-opacity="0.33"/>
<circle cx="5.07203" cy="5.07203" r="5.07203" transform="matrix(-1 0 0 1 130.424 202.881)" fill="#F1D8C0" fill-opacity="0.33"/>
<circle cx="5.07203" cy="5.07203" r="5.07203" transform="matrix(-1 0 0 1 113.517 202.881)" fill="#F1D8C0" fill-opacity="0.33"/>
<circle cx="5.07203" cy="5.07203" r="5.07203" transform="matrix(-1 0 0 1 96.6102 202.881)" fill="#F1D8C0" fill-opacity="0.33"/>
<circle cx="5.07203" cy="5.07203" r="5.07203" transform="matrix(-1 0 0 1 79.7034 202.881)" fill="#F1D8C0" fill-opacity="0.33"/>
<circle cx="5.07203" cy="5.07203" r="5.07203" transform="matrix(-1 0 0 1 62.7966 202.881)" fill="#F1D8C0" fill-opacity="0.33"/>
<circle cx="5.07203" cy="5.07203" r="5.07203" transform="matrix(-1 0 0 1 198.051 219.788)" fill="#F1D8C0" fill-opacity="0.33"/>
<circle cx="5.07203" cy="5.07203" r="5.07203" transform="matrix(-1 0 0 1 181.144 219.788)" fill="#F1D8C0" fill-opacity="0.33"/>
<circle cx="5.07203" cy="5.07203" r="5.07203" transform="matrix(-1 0 0 1 164.237 219.788)" fill="#F1D8C0" fill-opacity="0.33"/>
<circle cx="5.07203" cy="5.07203" r="5.07203" transform="matrix(-1 0 0 1 147.331 219.788)" fill="#F1D8C0" fill-opacity="0.33"/>
<circle cx="5.07203" cy="5.07203" r="5.07203" transform="matrix(-1 0 0 1 130.424 219.788)" fill="#F1D8C0" fill-opacity="0.33"/>
<circle cx="5.07203" cy="5.07203" r="5.07203" transform="matrix(-1 0 0 1 113.517 219.788)" fill="#F1D8C0" fill-opacity="0.33"/>
<circle cx="5.07203" cy="5.07203" r="5.07203" transform="matrix(-1 0 0 1 96.6102 219.788)" fill="#F1D8C0" fill-opacity="0.33"/>
<circle cx="5.07203" cy="5.07203" r="5.07203" transform="matrix(-1 0 0 1 79.7034 219.788)" fill="#F1D8C0" fill-opacity="0.33"/>
<circle cx="5.07203" cy="5.07203" r="5.07203" transform="matrix(-1 0 0 1 62.7966 219.788)" fill="#F1D8C0" fill-opacity="0.33"/>
<circle cx="5.07203" cy="5.07203" r="5.07203" transform="matrix(-1 0 0 1 45.8898 219.788)" fill="#F1D8C0" fill-opacity="0.33"/>
<circle cx="5.07203" cy="5.07203" r="5.07203" transform="matrix(-1 0 0 1 198.051 236.695)" fill="#F1D8C0" fill-opacity="0.33"/>
<circle cx="5.07203" cy="5.07203" r="5.07203" transform="matrix(-1 0 0 1 181.144 236.695)" fill="#F1D8C0" fill-opacity="0.33"/>
<circle cx="5.07203" cy="5.07203" r="5.07203" transform="matrix(-1 0 0 1 164.237 236.695)" fill="#F1D8C0" fill-opacity="0.33"/>
<circle cx="5.07203" cy="5.07203" r="5.07203" transform="matrix(-1 0 0 1 147.331 236.695)" fill="#F1D8C0" fill-opacity="0.33"/>
<circle cx="5.07203" cy="5.07203" r="5.07203" transform="matrix(-1 0 0 1 130.424 236.695)" fill="#F1D8C0" fill-opacity="0.33"/>
<circle cx="5.07203" cy="5.07203" r="5.07203" transform="matrix(-1 0 0 1 113.517 236.695)" fill="#F1D8C0" fill-opacity="0.33"/>
<circle cx="5.07203" cy="5.07203" r="5.07203" transform="matrix(-1 0 0 1 96.6102 236.695)" fill="#F1D8C0" fill-opacity="0.33"/>
<circle cx="5.07203" cy="5.07203" r="5.07203" transform="matrix(-1 0 0 1 79.7034 236.695)" fill="#F1D8C0" fill-opacity="0.33"/>
<circle cx="5.07203" cy="5.07203" r="5.07203" transform="matrix(-1 0 0 1 62.7966 236.695)" fill="#F1D8C0" fill-opacity="0.33"/>
<circle cx="5.07203" cy="5.07203" r="5.07203" transform="matrix(-1 0 0 1 198.051 253.602)" fill="#F1D8C0" fill-opacity="0.33"/>
<circle cx="5.07203" cy="5.07203" r="5.07203" transform="matrix(-1 0 0 1 181.144 253.602)" fill="#F1D8C0" fill-opacity="0.33"/>
<circle cx="5.07203" cy="5.07203" r="5.07203" transform="matrix(-1 0 0 1 164.237 253.602)" fill="#F1D8C0" fill-opacity="0.33"/>
<circle cx="5.07203" cy="5.07203" r="5.07203" transform="matrix(-1 0 0 1 147.331 253.602)" fill="#F1D8C0" fill-opacity="0.33"/>
<circle cx="5.07203" cy="5.07203" r="5.07203" transform="matrix(-1 0 0 1 130.424 253.602)" fill="#F1D8C0" fill-opacity="0.33"/>
<circle cx="5.07203" cy="5.07203" r="5.07203" transform="matrix(-1 0 0 1 113.517 253.602)" fill="#F1D8C0" fill-opacity="0.33"/>
<circle cx="5.07203" cy="5.07203" r="5.07203" transform="matrix(-1 0 0 1 96.6102 253.602)" fill="#F1D8C0" fill-opacity="0.33"/>
<circle cx="5.07203" cy="5.07203" r="5.07203" transform="matrix(-1 0 0 1 79.7034 253.602)" fill="#F1D8C0" fill-opacity="0.33"/>
<circle cx="5.07203" cy="5.07203" r="5.07203" transform="matrix(-1 0 0 1 62.7966 253.602)" fill="#F1D8C0" fill-opacity="0.33"/>
<circle cx="5.07203" cy="5.07203" r="5.07203" transform="matrix(-1 0 0 1 198.051 270.508)" fill="#F1D8C0" fill-opacity="0.33"/>
<circle cx="5.07203" cy="5.07203" r="5.07203" transform="matrix(-1 0 0 1 181.144 270.508)" fill="#F1D8C0" fill-opacity="0.33"/>
<circle cx="5.07203" cy="5.07203" r="5.07203" transform="matrix(-1 0 0 1 164.237 270.508)" fill="#F1D8C0" fill-opacity="0.33"/>
<circle cx="5.07203" cy="5.07203" r="5.07203" transform="matrix(-1 0 0 1 147.331 270.508)" fill="#F1D8C0" fill-opacity="0.33"/>
<circle cx="5.07203" cy="5.07203" r="5.07203" transform="matrix(-1 0 0 1 130.424 270.508)" fill="#F1D8C0" fill-opacity="0.33"/>
<circle cx="5.07203" cy="5.07203" r="5.07203" transform="matrix(-1 0 0 1 113.517 270.508)" fill="#F1D8C0" fill-opacity="0.33"/>
<circle cx="5.07203" cy="5.07203" r="5.07203" transform="matrix(-1 0 0 1 96.6102 270.508)" fill="#F1D8C0" fill-opacity="0.33"/>
<circle cx="5.07203" cy="5.07203" r="5.07203" transform="matrix(-1 0 0 1 79.7034 270.508)" fill="#F1D8C0" fill-opacity="0.33"/>
<circle cx="5.07203" cy="5.07203" r="5.07203" transform="matrix(-1 0 0 1 62.7966 270.508)" fill="#F1D8C0" fill-opacity="0.33"/>
<circle cx="5.07203" cy="5.07203" r="5.07203" transform="matrix(-1 0 0 1 45.8898 270.508)" fill="#F1D8C0" fill-opacity="0.33"/>
<circle cx="5.07203" cy="5.07203" r="5.07203" transform="matrix(-1 0 0 1 198.051 287.415)" fill="#F1D8C0" fill-opacity="0.33"/>
<circle cx="5.07203" cy="5.07203" r="5.07203" transform="matrix(-1 0 0 1 181.144 287.415)" fill="#F1D8C0" fill-opacity="0.33"/>
<circle cx="5.07203" cy="5.07203" r="5.07203" transform="matrix(-1 0 0 1 164.237 287.415)" fill="#F1D8C0" fill-opacity="0.33"/>
<circle cx="5.07203" cy="5.07203" r="5.07203" transform="matrix(-1 0 0 1 147.331 287.415)" fill="#F1D8C0" fill-opacity="0.33"/>
<circle cx="5.07203" cy="5.07203" r="5.07203" transform="matrix(-1 0 0 1 130.424 287.415)" fill="#F1D8C0" fill-opacity="0.33"/>
<circle cx="5.07203" cy="5.07203" r="5.07203" transform="matrix(-1 0 0 1 113.517 287.415)" fill="#F1D8C0" fill-opacity="0.33"/>
<circle cx="5.07203" cy="5.07203" r="5.07203" transform="matrix(-1 0 0 1 96.6102 287.415)" fill="#F1D8C0" fill-opacity="0.33"/>
<circle cx="5.07203" cy="5.07203" r="5.07203" transform="matrix(-1 0 0 1 79.7034 287.415)" fill="#F1D8C0" fill-opacity="0.33"/>
<circle cx="5.07203" cy="5.07203" r="5.07203" transform="matrix(-1 0 0 1 62.7966 287.415)" fill="#F1D8C0" fill-opacity="0.33"/>
<circle cx="5.07203" cy="5.07203" r="5.07203" transform="matrix(-1 0 0 1 45.8898 287.415)" fill="#F1D8C0" fill-opacity="0.33"/>
<circle cx="5.07203" cy="5.07203" r="5.07203" transform="matrix(-1 0 0 1 198.051 304.322)" fill="#F1D8C0" fill-opacity="0.33"/>
<circle cx="5.07203" cy="5.07203" r="5.07203" transform="matrix(-1 0 0 1 181.144 304.322)" fill="#F1D8C0" fill-opacity="0.33"/>
<circle cx="5.07203" cy="5.07203" r="5.07203" transform="matrix(-1 0 0 1 164.237 304.322)" fill="#F1D8C0" fill-opacity="0.33"/>
<circle cx="5.07203" cy="5.07203" r="5.07203" transform="matrix(-1 0 0 1 147.331 304.322)" fill="#F1D8C0" fill-opacity="0.33"/>
<circle cx="5.07203" cy="5.07203" r="5.07203" transform="matrix(-1 0 0 1 130.424 304.322)" fill="#F1D8C0" fill-opacity="0.33"/>
<circle cx="5.07203" cy="5.07203" r="5.07203" transform="matrix(-1 0 0 1 113.517 304.322)" fill="#F1D8C0" fill-opacity="0.33"/>
<circle cx="5.07203" cy="5.07203" r="5.07203" transform="matrix(-1 0 0 1 96.6102 304.322)" fill="#F1D8C0" fill-opacity="0.33"/>
<circle cx="5.07203" cy="5.07203" r="5.07203" transform="matrix(-1 0 0 1 79.7034 304.322)" fill="#F1D8C0" fill-opacity="0.33"/>
<circle cx="5.07203" cy="5.07203" r="5.07203" transform="matrix(-1 0 0 1 62.7966 304.322)" fill="#F1D8C0" fill-opacity="0.33"/>
<circle cx="5.07203" cy="5.07203" r="5.07203" transform="matrix(-1 0 0 1 45.8898 304.322)" fill="#F1D8C0" fill-opacity="0.33"/>
<circle cx="5.07203" cy="5.07203" r="5.07203" transform="matrix(-1 0 0 1 198.051 321.229)" fill="#F1D8C0" fill-opacity="0.33"/>
<circle cx="5.07203" cy="5.07203" r="5.07203" transform="matrix(-1 0 0 1 181.144 321.229)" fill="#F1D8C0" fill-opacity="0.33"/>
<circle cx="5.07203" cy="5.07203" r="5.07203" transform="matrix(-1 0 0 1 164.237 321.229)" fill="#F1D8C0" fill-opacity="0.33"/>
<circle cx="5.07203" cy="5.07203" r="5.07203" transform="matrix(-1 0 0 1 147.331 321.229)" fill="#F1D8C0" fill-opacity="0.33"/>
<circle cx="5.07203" cy="5.07203" r="5.07203" transform="matrix(-1 0 0 1 130.424 321.229)" fill="#F1D8C0" fill-opacity="0.33"/>
<circle cx="5.07203" cy="5.07203" r="5.07203" transform="matrix(-1 0 0 1 113.517 321.229)" fill="#F1D8C0" fill-opacity="0.33"/>
<circle cx="5.07203" cy="5.07203" r="5.07203" transform="matrix(-1 0 0 1 96.6102 321.229)" fill="#F1D8C0" fill-opacity="0.33"/>
<circle cx="5.07203" cy="5.07203" r="5.07203" transform="matrix(-1 0 0 1 79.7034 321.229)" fill="#F1D8C0" fill-opacity="0.33"/>
<circle cx="5.07203" cy="5.07203" r="5.07203" transform="matrix(-1 0 0 1 62.7966 321.229)" fill="#F1D8C0" fill-opacity="0.33"/>
<circle cx="5.07203" cy="5.07203" r="5.07203" transform="matrix(-1 0 0 1 45.8898 321.229)" fill="#F1D8C0" fill-opacity="0.33"/>
<circle cx="5.07203" cy="5.07203" r="5.07203" transform="matrix(-1 0 0 1 198.051 338.136)" fill="#F1D8C0" fill-opacity="0.33"/>
<circle cx="5.07203" cy="5.07203" r="5.07203" transform="matrix(-1 0 0 1 181.144 338.136)" fill="#F1D8C0" fill-opacity="0.33"/>
<circle cx="5.07203" cy="5.07203" r="5.07203" transform="matrix(-1 0 0 1 164.237 338.136)" fill="#F1D8C0" fill-opacity="0.33"/>
<circle cx="5.07203" cy="5.07203" r="5.07203" transform="matrix(-1 0 0 1 147.331 338.136)" fill="#F1D8C0" fill-opacity="0.33"/>
<circle cx="5.07203" cy="5.07203" r="5.07203" transform="matrix(-1 0 0 1 130.424 338.136)" fill="#F1D8C0" fill-opacity="0.33"/>
<circle cx="5.07203" cy="5.07203" r="5.07203" transform="matrix(-1 0 0 1 113.517 338.136)" fill="#F1D8C0" fill-opacity="0.33"/>
<circle cx="5.07203" cy="5.07203" r="5.07203" transform="matrix(-1 0 0 1 96.6102 338.136)" fill="#F1D8C0" fill-opacity="0.33"/>
<circle cx="5.07203" cy="5.07203" r="5.07203" transform="matrix(-1 0 0 1 79.7034 338.136)" fill="#F1D8C0" fill-opacity="0.33"/>
<circle cx="5.07203" cy="5.07203" r="5.07203" transform="matrix(-1 0 0 1 62.7966 338.136)" fill="#F1D8C0" fill-opacity="0.33"/>
<circle cx="5.07203" cy="5.07203" r="5.07203" transform="matrix(-1 0 0 1 45.8898 338.136)" fill="#F1D8C0" fill-opacity="0.33"/>
<circle cx="5.07203" cy="5.07203" r="5.07203" transform="matrix(-1 0 0 1 198.051 355.042)" fill="#F1D8C0" fill-opacity="0.33"/>
<circle cx="5.07203" cy="5.07203" r="5.07203" transform="matrix(-1 0 0 1 181.144 355.042)" fill="#F1D8C0" fill-opacity="0.33"/>
<circle cx="5.07203" cy="5.07203" r="5.07203" transform="matrix(-1 0 0 1 164.237 355.042)" fill="#F1D8C0" fill-opacity="0.33"/>
<circle cx="5.07203" cy="5.07203" r="5.07203" transform="matrix(-1 0 0 1 147.331 355.042)" fill="#F1D8C0" fill-opacity="0.33"/>
<circle cx="5.07203" cy="5.07203" r="5.07203" transform="matrix(-1 0 0 1 130.424 355.042)" fill="#F1D8C0" fill-opacity="0.33"/>
<circle cx="5.07203" cy="5.07203" r="5.07203" transform="matrix(-1 0 0 1 113.517 355.042)" fill="#F1D8C0" fill-opacity="0.33"/>
<circle cx="5.07203" cy="5.07203" r="5.07203" transform="matrix(-1 0 0 1 96.6102 355.042)" fill="#F1D8C0" fill-opacity="0.33"/>
<circle cx="5.07203" cy="5.07203" r="5.07203" transform="matrix(-1 0 0 1 79.7034 355.042)" fill="#F1D8C0" fill-opacity="0.33"/>
<circle cx="5.07203" cy="5.07203" r="5.07203" transform="matrix(-1 0 0 1 62.7966 355.042)" fill="#F1D8C0" fill-opacity="0.33"/>
<circle cx="5.07203" cy="5.07203" r="5.07203" transform="matrix(-1 0 0 1 45.8898 355.042)" fill="#F1D8C0" fill-opacity="0.33"/>
<circle cx="5.07203" cy="5.07203" r="5.07203" transform="matrix(-1 0 0 1 198.051 371.949)" fill="#F1D8C0" fill-opacity="0.33"/>
<circle cx="5.07203" cy="5.07203" r="5.07203" transform="matrix(-1 0 0 1 181.144 371.949)" fill="#F1D8C0" fill-opacity="0.33"/>
<circle cx="5.07203" cy="5.07203" r="5.07203" transform="matrix(-1 0 0 1 164.237 371.949)" fill="#F1D8C0" fill-opacity="0.33"/>
<circle cx="5.07203" cy="5.07203" r="5.07203" transform="matrix(-1 0 0 1 147.331 371.949)" fill="#F1D8C0" fill-opacity="0.33"/>
<circle cx="5.07203" cy="5.07203" r="5.07203" transform="matrix(-1 0 0 1 130.424 371.949)" fill="#F1D8C0" fill-opacity="0.33"/>
<circle cx="5.07203" cy="5.07203" r="5.07203" transform="matrix(-1 0 0 1 113.517 371.949)" fill="#F1D8C0" fill-opacity="0.33"/>
<circle cx="5.07203" cy="5.07203" r="5.07203" transform="matrix(-1 0 0 1 96.6102 371.949)" fill="#F1D8C0" fill-opacity="0.33"/>
<circle cx="5.07203" cy="5.07203" r="5.07203" transform="matrix(-1 0 0 1 79.7034 371.949)" fill="#F1D8C0" fill-opacity="0.33"/>
<circle cx="5.07203" cy="5.07203" r="5.07203" transform="matrix(-1 0 0 1 62.7966 371.949)" fill="#F1D8C0" fill-opacity="0.33"/>
<circle cx="5.07203" cy="5.07203" r="5.07203" transform="matrix(-1 0 0 1 45.8898 371.949)" fill="#F1D8C0" fill-opacity="0.33"/>
<circle cx="5.07203" cy="5.07203" r="5.07203" transform="matrix(-1 0 0 1 198.051 388.856)" fill="#F1D8C0" fill-opacity="0.33"/>
<circle cx="5.07203" cy="5.07203" r="5.07203" transform="matrix(-1 0 0 1 181.144 388.856)" fill="#F1D8C0" fill-opacity="0.33"/>
<circle cx="5.07203" cy="5.07203" r="5.07203" transform="matrix(-1 0 0 1 164.237 388.856)" fill="#F1D8C0" fill-opacity="0.33"/>
<circle cx="5.07203" cy="5.07203" r="5.07203" transform="matrix(-1 0 0 1 147.331 388.856)" fill="#F1D8C0" fill-opacity="0.33"/>
<circle cx="5.07203" cy="5.07203" r="5.07203" transform="matrix(-1 0 0 1 130.424 388.856)" fill="#F1D8C0" fill-opacity="0.33"/>
<circle cx="5.07203" cy="5.07203" r="5.07203" transform="matrix(-1 0 0 1 113.517 388.856)" fill="#F1D8C0" fill-opacity="0.33"/>
<circle cx="5.07203" cy="5.07203" r="5.07203" transform="matrix(-1 0 0 1 96.6102 388.856)" fill="#F1D8C0" fill-opacity="0.33"/>
<circle cx="5.07203" cy="5.07203" r="5.07203" transform="matrix(-1 0 0 1 79.7034 388.856)" fill="#F1D8C0" fill-opacity="0.33"/>
<circle cx="5.07203" cy="5.07203" r="5.07203" transform="matrix(-1 0 0 1 62.7966 388.856)" fill="#F1D8C0" fill-opacity="0.33"/>
<circle cx="5.07203" cy="5.07203" r="5.07203" transform="matrix(-1 0 0 1 45.8898 388.856)" fill="#F1D8C0" fill-opacity="0.33"/>
</g>
</svg>
