<svg width="320" height="438" viewBox="0 0 320 438" fill="none" xmlns="http://www.w3.org/2000/svg">
<mask id="mask0_2_1021" style="mask-type:alpha" maskUnits="userSpaceOnUse" x="-119" y="10" width="362" height="390">
<path opacity="0.69" d="M161.682 115.312C-38.5143 -59.905 -111.267 34.0099 -118.407 44.4408C-118.834 45.0647 -118.996 45.7462 -118.989 46.5022L-117.836 170.403C-116.445 319.951 14.6041 455.175 141.673 376.308C183.152 350.563 218.283 314.121 235.955 262.556C268.623 167.233 177.99 129.585 161.682 115.312Z" fill="#F1D8C0" fill-opacity="0.33"/>
</mask>
<g mask="url(#mask0_2_1021)">
<circle cx="1.48732" cy="5.07203" r="5.07203" fill="#F1D8C0" fill-opacity="0.33"/>
<circle cx="18.3941" cy="5.07203" r="5.07203" fill="#F1D8C0" fill-opacity="0.33"/>
<circle cx="35.3009" cy="5.07203" r="5.07203" fill="#F1D8C0" fill-opacity="0.33"/>
<circle cx="52.2077" cy="5.07203" r="5.07203" fill="#F1D8C0" fill-opacity="0.33"/>
<circle cx="69.1144" cy="5.07203" r="5.07203" fill="#F1D8C0" fill-opacity="0.33"/>
<circle cx="86.0212" cy="5.07203" r="5.07203" fill="#F1D8C0" fill-opacity="0.33"/>
<circle cx="102.928" cy="5.07203" r="5.07203" fill="#F1D8C0" fill-opacity="0.33"/>
<circle cx="119.835" cy="5.07203" r="5.07203" fill="#F1D8C0" fill-opacity="0.33"/>
<circle cx="136.742" cy="5.07203" r="5.07203" fill="#F1D8C0" fill-opacity="0.33"/>
<circle cx="153.648" cy="5.07203" r="5.07203" fill="#F1D8C0" fill-opacity="0.33"/>
<circle cx="170.555" cy="5.07203" r="5.07203" fill="#F1D8C0" fill-opacity="0.33"/>
<circle cx="187.462" cy="5.07203" r="5.07203" fill="#F1D8C0" fill-opacity="0.33"/>
<circle cx="204.369" cy="5.07203" r="5.07203" fill="#F1D8C0" fill-opacity="0.33"/>
<circle cx="221.275" cy="5.07203" r="5.07203" fill="#F1D8C0" fill-opacity="0.33"/>
<circle cx="238.182" cy="5.07203" r="5.07203" fill="#F1D8C0" fill-opacity="0.33"/>
<circle cx="35.3009" cy="21.9788" r="5.07203" fill="#F1D8C0" fill-opacity="0.33"/>
<circle cx="52.2077" cy="21.9788" r="5.07203" fill="#F1D8C0" fill-opacity="0.33"/>
<circle cx="69.1144" cy="21.9788" r="5.07203" fill="#F1D8C0" fill-opacity="0.33"/>
<circle cx="86.0212" cy="21.9788" r="5.07203" fill="#F1D8C0" fill-opacity="0.33"/>
<circle cx="102.928" cy="21.9788" r="5.07203" fill="#F1D8C0" fill-opacity="0.33"/>
<circle cx="119.835" cy="21.9788" r="5.07203" fill="#F1D8C0" fill-opacity="0.33"/>
<circle cx="136.742" cy="21.9788" r="5.07203" fill="#F1D8C0" fill-opacity="0.33"/>
<circle cx="153.648" cy="21.9788" r="5.07203" fill="#F1D8C0" fill-opacity="0.33"/>
<circle cx="170.555" cy="21.9788" r="5.07203" fill="#F1D8C0" fill-opacity="0.33"/>
<circle cx="187.462" cy="21.9788" r="5.07203" fill="#F1D8C0" fill-opacity="0.33"/>
<circle cx="204.369" cy="21.9788" r="5.07203" fill="#F1D8C0" fill-opacity="0.33"/>
<circle cx="221.275" cy="21.9788" r="5.07203" fill="#F1D8C0" fill-opacity="0.33"/>
<circle cx="238.182" cy="21.9788" r="5.07203" fill="#F1D8C0" fill-opacity="0.33"/>
<circle cx="1.48732" cy="38.8856" r="5.07203" fill="#F1D8C0" fill-opacity="0.33"/>
<circle cx="18.3941" cy="38.8856" r="5.07203" fill="#F1D8C0" fill-opacity="0.33"/>
<circle cx="35.3009" cy="38.8856" r="5.07203" fill="#F1D8C0" fill-opacity="0.33"/>
<circle cx="69.1144" cy="38.8856" r="5.07203" fill="#F1D8C0" fill-opacity="0.33"/>
<circle cx="86.0212" cy="38.8856" r="5.07203" fill="#F1D8C0" fill-opacity="0.33"/>
<circle cx="102.928" cy="38.8856" r="5.07203" fill="#F1D8C0" fill-opacity="0.33"/>
<circle cx="119.835" cy="38.8856" r="5.07203" fill="#F1D8C0" fill-opacity="0.33"/>
<circle cx="136.742" cy="38.8856" r="5.07203" fill="#F1D8C0" fill-opacity="0.33"/>
<circle cx="153.648" cy="38.8856" r="5.07203" fill="#F1D8C0" fill-opacity="0.33"/>
<circle cx="170.555" cy="38.8856" r="5.07203" fill="#F1D8C0" fill-opacity="0.33"/>
<circle cx="187.462" cy="38.8856" r="5.07203" fill="#F1D8C0" fill-opacity="0.33"/>
<circle cx="204.369" cy="38.8856" r="5.07203" fill="#F1D8C0" fill-opacity="0.33"/>
<circle cx="221.275" cy="38.8856" r="5.07203" fill="#F1D8C0" fill-opacity="0.33"/>
<circle cx="238.182" cy="38.8856" r="5.07203" fill="#F1D8C0" fill-opacity="0.33"/>
<circle cx="1.48732" cy="55.7924" r="5.07203" fill="#F1D8C0" fill-opacity="0.33"/>
<circle cx="18.3941" cy="55.7924" r="5.07203" fill="#F1D8C0" fill-opacity="0.33"/>
<circle cx="35.3009" cy="55.7924" r="5.07203" fill="#F1D8C0" fill-opacity="0.33"/>
<circle cx="52.2077" cy="55.7924" r="5.07203" fill="#F1D8C0" fill-opacity="0.33"/>
<circle cx="69.1144" cy="55.7924" r="5.07203" fill="#F1D8C0" fill-opacity="0.33"/>
<circle cx="102.928" cy="55.7924" r="5.07203" fill="#F1D8C0" fill-opacity="0.33"/>
<circle cx="119.835" cy="55.7924" r="5.07203" fill="#F1D8C0" fill-opacity="0.33"/>
<circle cx="136.742" cy="55.7924" r="5.07203" fill="#F1D8C0" fill-opacity="0.33"/>
<circle cx="153.648" cy="55.7924" r="5.07203" fill="#F1D8C0" fill-opacity="0.33"/>
<circle cx="170.555" cy="55.7924" r="5.07203" fill="#F1D8C0" fill-opacity="0.33"/>
<circle cx="187.462" cy="55.7924" r="5.07203" fill="#F1D8C0" fill-opacity="0.33"/>
<circle cx="204.369" cy="55.7924" r="5.07203" fill="#F1D8C0" fill-opacity="0.33"/>
<circle cx="221.275" cy="55.7924" r="5.07203" fill="#F1D8C0" fill-opacity="0.33"/>
<circle cx="238.182" cy="55.7924" r="5.07203" fill="#F1D8C0" fill-opacity="0.33"/>
<circle cx="1.48732" cy="72.6992" r="5.07203" fill="#F1D8C0" fill-opacity="0.33"/>
<circle cx="18.3941" cy="72.6992" r="5.07203" fill="#F1D8C0" fill-opacity="0.33"/>
<circle cx="35.3009" cy="72.6992" r="5.07203" fill="#F1D8C0" fill-opacity="0.33"/>
<circle cx="52.2077" cy="72.6992" r="5.07203" fill="#F1D8C0" fill-opacity="0.33"/>
<circle cx="69.1144" cy="72.6992" r="5.07203" fill="#F1D8C0" fill-opacity="0.33"/>
<circle cx="86.0212" cy="72.6992" r="5.07203" fill="#F1D8C0" fill-opacity="0.33"/>
<circle cx="119.835" cy="72.6992" r="5.07203" fill="#F1D8C0" fill-opacity="0.33"/>
<circle cx="136.742" cy="72.6992" r="5.07203" fill="#F1D8C0" fill-opacity="0.33"/>
<circle cx="153.648" cy="72.6992" r="5.07203" fill="#F1D8C0" fill-opacity="0.33"/>
<circle cx="170.555" cy="72.6992" r="5.07203" fill="#F1D8C0" fill-opacity="0.33"/>
<circle cx="187.462" cy="72.6992" r="5.07203" fill="#F1D8C0" fill-opacity="0.33"/>
<circle cx="204.369" cy="72.6992" r="5.07203" fill="#F1D8C0" fill-opacity="0.33"/>
<circle cx="221.275" cy="72.6992" r="5.07203" fill="#F1D8C0" fill-opacity="0.33"/>
<circle cx="238.182" cy="72.6992" r="5.07203" fill="#F1D8C0" fill-opacity="0.33"/>
<circle cx="1.48732" cy="89.6059" r="5.07203" fill="#F1D8C0" fill-opacity="0.33"/>
<circle cx="18.3941" cy="89.6059" r="5.07203" fill="#F1D8C0" fill-opacity="0.33"/>
<circle cx="35.3009" cy="89.6059" r="5.07203" fill="#F1D8C0" fill-opacity="0.33"/>
<circle cx="52.2077" cy="89.6059" r="5.07203" fill="#F1D8C0" fill-opacity="0.33"/>
<circle cx="69.1144" cy="89.6059" r="5.07203" fill="#F1D8C0" fill-opacity="0.33"/>
<circle cx="86.0212" cy="89.6059" r="5.07203" fill="#F1D8C0" fill-opacity="0.33"/>
<circle cx="102.928" cy="89.6059" r="5.07203" fill="#F1D8C0" fill-opacity="0.33"/>
<circle cx="119.835" cy="89.6059" r="5.07203" fill="#F1D8C0" fill-opacity="0.33"/>
<circle cx="153.648" cy="89.6059" r="5.07203" fill="#F1D8C0" fill-opacity="0.33"/>
<circle cx="170.555" cy="89.6059" r="5.07203" fill="#F1D8C0" fill-opacity="0.33"/>
<circle cx="187.462" cy="89.6059" r="5.07203" fill="#F1D8C0" fill-opacity="0.33"/>
<circle cx="204.369" cy="89.6059" r="5.07203" fill="#F1D8C0" fill-opacity="0.33"/>
<circle cx="221.275" cy="89.6059" r="5.07203" fill="#F1D8C0" fill-opacity="0.33"/>
<circle cx="238.182" cy="89.6059" r="5.07203" fill="#F1D8C0" fill-opacity="0.33"/>
<circle cx="1.48732" cy="106.513" r="5.07203" fill="#F1D8C0" fill-opacity="0.33"/>
<circle cx="18.3941" cy="106.513" r="5.07203" fill="#F1D8C0" fill-opacity="0.33"/>
<circle cx="35.3009" cy="106.513" r="5.07203" fill="#F1D8C0" fill-opacity="0.33"/>
<circle cx="52.2077" cy="106.513" r="5.07203" fill="#F1D8C0" fill-opacity="0.33"/>
<circle cx="69.1144" cy="106.513" r="5.07203" fill="#F1D8C0" fill-opacity="0.33"/>
<circle cx="86.0212" cy="106.513" r="5.07203" fill="#F1D8C0" fill-opacity="0.33"/>
<circle cx="102.928" cy="106.513" r="5.07203" fill="#F1D8C0" fill-opacity="0.33"/>
<circle cx="119.835" cy="106.513" r="5.07203" fill="#F1D8C0" fill-opacity="0.33"/>
<circle cx="136.742" cy="106.513" r="5.07203" fill="#F1D8C0" fill-opacity="0.33"/>
<circle cx="170.555" cy="106.513" r="5.07203" fill="#F1D8C0" fill-opacity="0.33"/>
<circle cx="187.462" cy="106.513" r="5.07203" fill="#F1D8C0" fill-opacity="0.33"/>
<circle cx="204.369" cy="106.513" r="5.07203" fill="#F1D8C0" fill-opacity="0.33"/>
<circle cx="221.275" cy="106.513" r="5.07203" fill="#F1D8C0" fill-opacity="0.33"/>
<circle cx="238.182" cy="106.513" r="5.07203" fill="#F1D8C0" fill-opacity="0.33"/>
<circle cx="1.48732" cy="123.42" r="5.07203" fill="#F1D8C0" fill-opacity="0.33"/>
<circle cx="18.3941" cy="123.42" r="5.07203" fill="#F1D8C0" fill-opacity="0.33"/>
<circle cx="35.3009" cy="123.42" r="5.07203" fill="#F1D8C0" fill-opacity="0.33"/>
<circle cx="52.2077" cy="123.42" r="5.07203" fill="#F1D8C0" fill-opacity="0.33"/>
<circle cx="69.1144" cy="123.42" r="5.07203" fill="#F1D8C0" fill-opacity="0.33"/>
<circle cx="86.0212" cy="123.42" r="5.07203" fill="#F1D8C0" fill-opacity="0.33"/>
<circle cx="102.928" cy="123.42" r="5.07203" fill="#F1D8C0" fill-opacity="0.33"/>
<circle cx="119.835" cy="123.42" r="5.07203" fill="#F1D8C0" fill-opacity="0.33"/>
<circle cx="136.742" cy="123.42" r="5.07203" fill="#F1D8C0" fill-opacity="0.33"/>
<circle cx="153.648" cy="123.42" r="5.07203" fill="#F1D8C0" fill-opacity="0.33"/>
<circle cx="187.462" cy="123.42" r="5.07203" fill="#F1D8C0" fill-opacity="0.33"/>
<circle cx="204.369" cy="123.42" r="5.07203" fill="#F1D8C0" fill-opacity="0.33"/>
<circle cx="221.275" cy="123.42" r="5.07203" fill="#F1D8C0" fill-opacity="0.33"/>
<circle cx="238.182" cy="123.42" r="5.07203" fill="#F1D8C0" fill-opacity="0.33"/>
<circle cx="1.48732" cy="140.326" r="5.07203" fill="#F1D8C0" fill-opacity="0.33"/>
<circle cx="18.3941" cy="140.326" r="5.07203" fill="#F1D8C0" fill-opacity="0.33"/>
<circle cx="35.3009" cy="140.326" r="5.07203" fill="#F1D8C0" fill-opacity="0.33"/>
<circle cx="52.2077" cy="140.326" r="5.07203" fill="#F1D8C0" fill-opacity="0.33"/>
<circle cx="69.1144" cy="140.326" r="5.07203" fill="#F1D8C0" fill-opacity="0.33"/>
<circle cx="86.0212" cy="140.326" r="5.07203" fill="#F1D8C0" fill-opacity="0.33"/>
<circle cx="102.928" cy="140.326" r="5.07203" fill="#F1D8C0" fill-opacity="0.33"/>
<circle cx="119.835" cy="140.326" r="5.07203" fill="#F1D8C0" fill-opacity="0.33"/>
<circle cx="136.742" cy="140.326" r="5.07203" fill="#F1D8C0" fill-opacity="0.33"/>
<circle cx="153.648" cy="140.326" r="5.07203" fill="#F1D8C0" fill-opacity="0.33"/>
<circle cx="170.555" cy="140.326" r="5.07203" fill="#F1D8C0" fill-opacity="0.33"/>
<circle cx="187.462" cy="140.326" r="5.07203" fill="#F1D8C0" fill-opacity="0.33"/>
<circle cx="221.275" cy="140.326" r="5.07203" fill="#F1D8C0" fill-opacity="0.33"/>
<circle cx="238.182" cy="140.326" r="5.07203" fill="#F1D8C0" fill-opacity="0.33"/>
<circle cx="1.48732" cy="157.233" r="5.07203" fill="#F1D8C0" fill-opacity="0.33"/>
<circle cx="18.3941" cy="157.233" r="5.07203" fill="#F1D8C0" fill-opacity="0.33"/>
<circle cx="35.3009" cy="157.233" r="5.07203" fill="#F1D8C0" fill-opacity="0.33"/>
<circle cx="52.2077" cy="157.233" r="5.07203" fill="#F1D8C0" fill-opacity="0.33"/>
<circle cx="69.1144" cy="157.233" r="5.07203" fill="#F1D8C0" fill-opacity="0.33"/>
<circle cx="86.0212" cy="157.233" r="5.07203" fill="#F1D8C0" fill-opacity="0.33"/>
<circle cx="102.928" cy="157.233" r="5.07203" fill="#F1D8C0" fill-opacity="0.33"/>
<circle cx="119.835" cy="157.233" r="5.07203" fill="#F1D8C0" fill-opacity="0.33"/>
<circle cx="136.742" cy="157.233" r="5.07203" fill="#F1D8C0" fill-opacity="0.33"/>
<circle cx="153.648" cy="157.233" r="5.07203" fill="#F1D8C0" fill-opacity="0.33"/>
<circle cx="170.555" cy="157.233" r="5.07203" fill="#F1D8C0" fill-opacity="0.33"/>
<circle cx="187.462" cy="157.233" r="5.07203" fill="#F1D8C0" fill-opacity="0.33"/>
<circle cx="204.369" cy="157.233" r="5.07203" fill="#F1D8C0" fill-opacity="0.33"/>
<circle cx="238.182" cy="157.233" r="5.07203" fill="#F1D8C0" fill-opacity="0.33"/>
<circle cx="1.48732" cy="174.14" r="5.07203" fill="#F1D8C0" fill-opacity="0.33"/>
<circle cx="18.3941" cy="174.14" r="5.07203" fill="#F1D8C0" fill-opacity="0.33"/>
<circle cx="35.3009" cy="174.14" r="5.07203" fill="#F1D8C0" fill-opacity="0.33"/>
<circle cx="52.2077" cy="174.14" r="5.07203" fill="#F1D8C0" fill-opacity="0.33"/>
<circle cx="69.1144" cy="174.14" r="5.07203" fill="#F1D8C0" fill-opacity="0.33"/>
<circle cx="86.0212" cy="174.14" r="5.07203" fill="#F1D8C0" fill-opacity="0.33"/>
<circle cx="102.928" cy="174.14" r="5.07203" fill="#F1D8C0" fill-opacity="0.33"/>
<circle cx="119.835" cy="174.14" r="5.07203" fill="#F1D8C0" fill-opacity="0.33"/>
<circle cx="136.742" cy="174.14" r="5.07203" fill="#F1D8C0" fill-opacity="0.33"/>
<circle cx="153.648" cy="174.14" r="5.07203" fill="#F1D8C0" fill-opacity="0.33"/>
<circle cx="170.555" cy="174.14" r="5.07203" fill="#F1D8C0" fill-opacity="0.33"/>
<circle cx="187.462" cy="174.14" r="5.07203" fill="#F1D8C0" fill-opacity="0.33"/>
<circle cx="204.369" cy="174.14" r="5.07203" fill="#F1D8C0" fill-opacity="0.33"/>
<circle cx="221.275" cy="174.14" r="5.07203" fill="#F1D8C0" fill-opacity="0.33"/>
<circle cx="238.182" cy="174.14" r="5.07203" fill="#F1D8C0" fill-opacity="0.33"/>
<circle cx="1.48732" cy="191.047" r="5.07203" fill="#F1D8C0" fill-opacity="0.33"/>
<circle cx="18.3941" cy="191.047" r="5.07203" fill="#F1D8C0" fill-opacity="0.33"/>
<circle cx="35.3009" cy="191.047" r="5.07203" fill="#F1D8C0" fill-opacity="0.33"/>
<circle cx="52.2077" cy="191.047" r="5.07203" fill="#F1D8C0" fill-opacity="0.33"/>
<circle cx="69.1144" cy="191.047" r="5.07203" fill="#F1D8C0" fill-opacity="0.33"/>
<circle cx="86.0212" cy="191.047" r="5.07203" fill="#F1D8C0" fill-opacity="0.33"/>
<circle cx="102.928" cy="191.047" r="5.07203" fill="#F1D8C0" fill-opacity="0.33"/>
<circle cx="119.835" cy="191.047" r="5.07203" fill="#F1D8C0" fill-opacity="0.33"/>
<circle cx="136.742" cy="191.047" r="5.07203" fill="#F1D8C0" fill-opacity="0.33"/>
<circle cx="153.648" cy="191.047" r="5.07203" fill="#F1D8C0" fill-opacity="0.33"/>
<circle cx="170.555" cy="191.047" r="5.07203" fill="#F1D8C0" fill-opacity="0.33"/>
<circle cx="187.462" cy="191.047" r="5.07203" fill="#F1D8C0" fill-opacity="0.33"/>
<circle cx="204.369" cy="191.047" r="5.07203" fill="#F1D8C0" fill-opacity="0.33"/>
<circle cx="221.275" cy="191.047" r="5.07203" fill="#F1D8C0" fill-opacity="0.33"/>
<circle cx="1.48732" cy="207.953" r="5.07203" fill="#F1D8C0" fill-opacity="0.33"/>
<circle cx="18.3941" cy="207.953" r="5.07203" fill="#F1D8C0" fill-opacity="0.33"/>
<circle cx="35.3009" cy="207.953" r="5.07203" fill="#F1D8C0" fill-opacity="0.33"/>
<circle cx="52.2077" cy="207.953" r="5.07203" fill="#F1D8C0" fill-opacity="0.33"/>
<circle cx="69.1144" cy="207.953" r="5.07203" fill="#F1D8C0" fill-opacity="0.33"/>
<circle cx="86.0212" cy="207.953" r="5.07203" fill="#F1D8C0" fill-opacity="0.33"/>
<circle cx="102.928" cy="207.953" r="5.07203" fill="#F1D8C0" fill-opacity="0.33"/>
<circle cx="119.835" cy="207.953" r="5.07203" fill="#F1D8C0" fill-opacity="0.33"/>
<circle cx="136.742" cy="207.953" r="5.07203" fill="#F1D8C0" fill-opacity="0.33"/>
<circle cx="153.648" cy="207.953" r="5.07203" fill="#F1D8C0" fill-opacity="0.33"/>
<circle cx="170.555" cy="207.953" r="5.07203" fill="#F1D8C0" fill-opacity="0.33"/>
<circle cx="187.462" cy="207.953" r="5.07203" fill="#F1D8C0" fill-opacity="0.33"/>
<circle cx="204.369" cy="207.953" r="5.07203" fill="#F1D8C0" fill-opacity="0.33"/>
<circle cx="221.275" cy="207.953" r="5.07203" fill="#F1D8C0" fill-opacity="0.33"/>
<circle cx="1.48732" cy="224.86" r="5.07203" fill="#F1D8C0" fill-opacity="0.33"/>
<circle cx="18.3941" cy="224.86" r="5.07203" fill="#F1D8C0" fill-opacity="0.33"/>
<circle cx="35.3009" cy="224.86" r="5.07203" fill="#F1D8C0" fill-opacity="0.33"/>
<circle cx="52.2077" cy="224.86" r="5.07203" fill="#F1D8C0" fill-opacity="0.33"/>
<circle cx="69.1144" cy="224.86" r="5.07203" fill="#F1D8C0" fill-opacity="0.33"/>
<circle cx="86.0212" cy="224.86" r="5.07203" fill="#F1D8C0" fill-opacity="0.33"/>
<circle cx="102.928" cy="224.86" r="5.07203" fill="#F1D8C0" fill-opacity="0.33"/>
<circle cx="119.835" cy="224.86" r="5.07203" fill="#F1D8C0" fill-opacity="0.33"/>
<circle cx="136.742" cy="224.86" r="5.07203" fill="#F1D8C0" fill-opacity="0.33"/>
<circle cx="153.648" cy="224.86" r="5.07203" fill="#F1D8C0" fill-opacity="0.33"/>
<circle cx="170.555" cy="224.86" r="5.07203" fill="#F1D8C0" fill-opacity="0.33"/>
<circle cx="187.462" cy="224.86" r="5.07203" fill="#F1D8C0" fill-opacity="0.33"/>
<circle cx="204.369" cy="224.86" r="5.07203" fill="#F1D8C0" fill-opacity="0.33"/>
<circle cx="221.275" cy="224.86" r="5.07203" fill="#F1D8C0" fill-opacity="0.33"/>
<circle cx="238.182" cy="224.86" r="5.07203" fill="#F1D8C0" fill-opacity="0.33"/>
<circle cx="1.48732" cy="241.767" r="5.07203" fill="#F1D8C0" fill-opacity="0.33"/>
<circle cx="18.3941" cy="241.767" r="5.07203" fill="#F1D8C0" fill-opacity="0.33"/>
<circle cx="35.3009" cy="241.767" r="5.07203" fill="#F1D8C0" fill-opacity="0.33"/>
<circle cx="52.2077" cy="241.767" r="5.07203" fill="#F1D8C0" fill-opacity="0.33"/>
<circle cx="69.1144" cy="241.767" r="5.07203" fill="#F1D8C0" fill-opacity="0.33"/>
<circle cx="86.0212" cy="241.767" r="5.07203" fill="#F1D8C0" fill-opacity="0.33"/>
<circle cx="102.928" cy="241.767" r="5.07203" fill="#F1D8C0" fill-opacity="0.33"/>
<circle cx="119.835" cy="241.767" r="5.07203" fill="#F1D8C0" fill-opacity="0.33"/>
<circle cx="136.742" cy="241.767" r="5.07203" fill="#F1D8C0" fill-opacity="0.33"/>
<circle cx="153.648" cy="241.767" r="5.07203" fill="#F1D8C0" fill-opacity="0.33"/>
<circle cx="170.555" cy="241.767" r="5.07203" fill="#F1D8C0" fill-opacity="0.33"/>
<circle cx="187.462" cy="241.767" r="5.07203" fill="#F1D8C0" fill-opacity="0.33"/>
<circle cx="204.369" cy="241.767" r="5.07203" fill="#F1D8C0" fill-opacity="0.33"/>
<circle cx="221.275" cy="241.767" r="5.07203" fill="#F1D8C0" fill-opacity="0.33"/>
<circle cx="1.48732" cy="258.674" r="5.07203" fill="#F1D8C0" fill-opacity="0.33"/>
<circle cx="18.3941" cy="258.674" r="5.07203" fill="#F1D8C0" fill-opacity="0.33"/>
<circle cx="35.3009" cy="258.674" r="5.07203" fill="#F1D8C0" fill-opacity="0.33"/>
<circle cx="52.2077" cy="258.674" r="5.07203" fill="#F1D8C0" fill-opacity="0.33"/>
<circle cx="69.1144" cy="258.674" r="5.07203" fill="#F1D8C0" fill-opacity="0.33"/>
<circle cx="86.0212" cy="258.674" r="5.07203" fill="#F1D8C0" fill-opacity="0.33"/>
<circle cx="102.928" cy="258.674" r="5.07203" fill="#F1D8C0" fill-opacity="0.33"/>
<circle cx="119.835" cy="258.674" r="5.07203" fill="#F1D8C0" fill-opacity="0.33"/>
<circle cx="136.742" cy="258.674" r="5.07203" fill="#F1D8C0" fill-opacity="0.33"/>
<circle cx="153.648" cy="258.674" r="5.07203" fill="#F1D8C0" fill-opacity="0.33"/>
<circle cx="170.555" cy="258.674" r="5.07203" fill="#F1D8C0" fill-opacity="0.33"/>
<circle cx="187.462" cy="258.674" r="5.07203" fill="#F1D8C0" fill-opacity="0.33"/>
<circle cx="204.369" cy="258.674" r="5.07203" fill="#F1D8C0" fill-opacity="0.33"/>
<circle cx="221.275" cy="258.674" r="5.07203" fill="#F1D8C0" fill-opacity="0.33"/>
<circle cx="1.48732" cy="275.581" r="5.07203" fill="#F1D8C0" fill-opacity="0.33"/>
<circle cx="18.3941" cy="275.581" r="5.07203" fill="#F1D8C0" fill-opacity="0.33"/>
<circle cx="35.3009" cy="275.581" r="5.07203" fill="#F1D8C0" fill-opacity="0.33"/>
<circle cx="52.2077" cy="275.581" r="5.07203" fill="#F1D8C0" fill-opacity="0.33"/>
<circle cx="69.1144" cy="275.581" r="5.07203" fill="#F1D8C0" fill-opacity="0.33"/>
<circle cx="86.0212" cy="275.581" r="5.07203" fill="#F1D8C0" fill-opacity="0.33"/>
<circle cx="102.928" cy="275.581" r="5.07203" fill="#F1D8C0" fill-opacity="0.33"/>
<circle cx="119.835" cy="275.581" r="5.07203" fill="#F1D8C0" fill-opacity="0.33"/>
<circle cx="136.742" cy="275.581" r="5.07203" fill="#F1D8C0" fill-opacity="0.33"/>
<circle cx="153.648" cy="275.581" r="5.07203" fill="#F1D8C0" fill-opacity="0.33"/>
<circle cx="170.555" cy="275.581" r="5.07203" fill="#F1D8C0" fill-opacity="0.33"/>
<circle cx="187.462" cy="275.581" r="5.07203" fill="#F1D8C0" fill-opacity="0.33"/>
<circle cx="204.369" cy="275.581" r="5.07203" fill="#F1D8C0" fill-opacity="0.33"/>
<circle cx="221.275" cy="275.581" r="5.07203" fill="#F1D8C0" fill-opacity="0.33"/>
<circle cx="238.182" cy="275.581" r="5.07203" fill="#F1D8C0" fill-opacity="0.33"/>
<circle cx="1.48732" cy="292.487" r="5.07203" fill="#F1D8C0" fill-opacity="0.33"/>
<circle cx="18.3941" cy="292.487" r="5.07203" fill="#F1D8C0" fill-opacity="0.33"/>
<circle cx="35.3009" cy="292.487" r="5.07203" fill="#F1D8C0" fill-opacity="0.33"/>
<circle cx="52.2077" cy="292.487" r="5.07203" fill="#F1D8C0" fill-opacity="0.33"/>
<circle cx="69.1144" cy="292.487" r="5.07203" fill="#F1D8C0" fill-opacity="0.33"/>
<circle cx="86.0212" cy="292.487" r="5.07203" fill="#F1D8C0" fill-opacity="0.33"/>
<circle cx="102.928" cy="292.487" r="5.07203" fill="#F1D8C0" fill-opacity="0.33"/>
<circle cx="119.835" cy="292.487" r="5.07203" fill="#F1D8C0" fill-opacity="0.33"/>
<circle cx="136.742" cy="292.487" r="5.07203" fill="#F1D8C0" fill-opacity="0.33"/>
<circle cx="153.648" cy="292.487" r="5.07203" fill="#F1D8C0" fill-opacity="0.33"/>
<circle cx="170.555" cy="292.487" r="5.07203" fill="#F1D8C0" fill-opacity="0.33"/>
<circle cx="187.462" cy="292.487" r="5.07203" fill="#F1D8C0" fill-opacity="0.33"/>
<circle cx="204.369" cy="292.487" r="5.07203" fill="#F1D8C0" fill-opacity="0.33"/>
<circle cx="221.275" cy="292.487" r="5.07203" fill="#F1D8C0" fill-opacity="0.33"/>
<circle cx="238.182" cy="292.487" r="5.07203" fill="#F1D8C0" fill-opacity="0.33"/>
<circle cx="1.48732" cy="309.394" r="5.07203" fill="#F1D8C0" fill-opacity="0.33"/>
<circle cx="18.3941" cy="309.394" r="5.07203" fill="#F1D8C0" fill-opacity="0.33"/>
<circle cx="35.3009" cy="309.394" r="5.07203" fill="#F1D8C0" fill-opacity="0.33"/>
<circle cx="52.2077" cy="309.394" r="5.07203" fill="#F1D8C0" fill-opacity="0.33"/>
<circle cx="69.1144" cy="309.394" r="5.07203" fill="#F1D8C0" fill-opacity="0.33"/>
<circle cx="86.0212" cy="309.394" r="5.07203" fill="#F1D8C0" fill-opacity="0.33"/>
<circle cx="102.928" cy="309.394" r="5.07203" fill="#F1D8C0" fill-opacity="0.33"/>
<circle cx="119.835" cy="309.394" r="5.07203" fill="#F1D8C0" fill-opacity="0.33"/>
<circle cx="136.742" cy="309.394" r="5.07203" fill="#F1D8C0" fill-opacity="0.33"/>
<circle cx="153.648" cy="309.394" r="5.07203" fill="#F1D8C0" fill-opacity="0.33"/>
<circle cx="170.555" cy="309.394" r="5.07203" fill="#F1D8C0" fill-opacity="0.33"/>
<circle cx="187.462" cy="309.394" r="5.07203" fill="#F1D8C0" fill-opacity="0.33"/>
<circle cx="204.369" cy="309.394" r="5.07203" fill="#F1D8C0" fill-opacity="0.33"/>
<circle cx="221.275" cy="309.394" r="5.07203" fill="#F1D8C0" fill-opacity="0.33"/>
<circle cx="238.182" cy="309.394" r="5.07203" fill="#F1D8C0" fill-opacity="0.33"/>
<circle cx="1.48732" cy="326.301" r="5.07203" fill="#F1D8C0" fill-opacity="0.33"/>
<circle cx="18.3941" cy="326.301" r="5.07203" fill="#F1D8C0" fill-opacity="0.33"/>
<circle cx="35.3009" cy="326.301" r="5.07203" fill="#F1D8C0" fill-opacity="0.33"/>
<circle cx="52.2077" cy="326.301" r="5.07203" fill="#F1D8C0" fill-opacity="0.33"/>
<circle cx="69.1144" cy="326.301" r="5.07203" fill="#F1D8C0" fill-opacity="0.33"/>
<circle cx="86.0212" cy="326.301" r="5.07203" fill="#F1D8C0" fill-opacity="0.33"/>
<circle cx="102.928" cy="326.301" r="5.07203" fill="#F1D8C0" fill-opacity="0.33"/>
<circle cx="119.835" cy="326.301" r="5.07203" fill="#F1D8C0" fill-opacity="0.33"/>
<circle cx="136.742" cy="326.301" r="5.07203" fill="#F1D8C0" fill-opacity="0.33"/>
<circle cx="153.648" cy="326.301" r="5.07203" fill="#F1D8C0" fill-opacity="0.33"/>
<circle cx="170.555" cy="326.301" r="5.07203" fill="#F1D8C0" fill-opacity="0.33"/>
<circle cx="187.462" cy="326.301" r="5.07203" fill="#F1D8C0" fill-opacity="0.33"/>
<circle cx="204.369" cy="326.301" r="5.07203" fill="#F1D8C0" fill-opacity="0.33"/>
<circle cx="221.275" cy="326.301" r="5.07203" fill="#F1D8C0" fill-opacity="0.33"/>
<circle cx="238.182" cy="326.301" r="5.07203" fill="#F1D8C0" fill-opacity="0.33"/>
<circle cx="1.48732" cy="343.208" r="5.07203" fill="#F1D8C0" fill-opacity="0.33"/>
<circle cx="18.3941" cy="343.208" r="5.07203" fill="#F1D8C0" fill-opacity="0.33"/>
<circle cx="35.3009" cy="343.208" r="5.07203" fill="#F1D8C0" fill-opacity="0.33"/>
<circle cx="52.2077" cy="343.208" r="5.07203" fill="#F1D8C0" fill-opacity="0.33"/>
<circle cx="69.1144" cy="343.208" r="5.07203" fill="#F1D8C0" fill-opacity="0.33"/>
<circle cx="86.0212" cy="343.208" r="5.07203" fill="#F1D8C0" fill-opacity="0.33"/>
<circle cx="102.928" cy="343.208" r="5.07203" fill="#F1D8C0" fill-opacity="0.33"/>
<circle cx="119.835" cy="343.208" r="5.07203" fill="#F1D8C0" fill-opacity="0.33"/>
<circle cx="136.742" cy="343.208" r="5.07203" fill="#F1D8C0" fill-opacity="0.33"/>
<circle cx="153.648" cy="343.208" r="5.07203" fill="#F1D8C0" fill-opacity="0.33"/>
<circle cx="170.555" cy="343.208" r="5.07203" fill="#F1D8C0" fill-opacity="0.33"/>
<circle cx="187.462" cy="343.208" r="5.07203" fill="#F1D8C0" fill-opacity="0.33"/>
<circle cx="204.369" cy="343.208" r="5.07203" fill="#F1D8C0" fill-opacity="0.33"/>
<circle cx="221.275" cy="343.208" r="5.07203" fill="#F1D8C0" fill-opacity="0.33"/>
<circle cx="238.182" cy="343.208" r="5.07203" fill="#F1D8C0" fill-opacity="0.33"/>
<circle cx="1.48732" cy="360.114" r="5.07203" fill="#F1D8C0" fill-opacity="0.33"/>
<circle cx="18.3941" cy="360.114" r="5.07203" fill="#F1D8C0" fill-opacity="0.33"/>
<circle cx="35.3009" cy="360.114" r="5.07203" fill="#F1D8C0" fill-opacity="0.33"/>
<circle cx="52.2077" cy="360.114" r="5.07203" fill="#F1D8C0" fill-opacity="0.33"/>
<circle cx="69.1144" cy="360.114" r="5.07203" fill="#F1D8C0" fill-opacity="0.33"/>
<circle cx="86.0212" cy="360.114" r="5.07203" fill="#F1D8C0" fill-opacity="0.33"/>
<circle cx="102.928" cy="360.114" r="5.07203" fill="#F1D8C0" fill-opacity="0.33"/>
<circle cx="119.835" cy="360.114" r="5.07203" fill="#F1D8C0" fill-opacity="0.33"/>
<circle cx="136.742" cy="360.114" r="5.07203" fill="#F1D8C0" fill-opacity="0.33"/>
<circle cx="153.648" cy="360.114" r="5.07203" fill="#F1D8C0" fill-opacity="0.33"/>
<circle cx="170.555" cy="360.114" r="5.07203" fill="#F1D8C0" fill-opacity="0.33"/>
<circle cx="187.462" cy="360.114" r="5.07203" fill="#F1D8C0" fill-opacity="0.33"/>
<circle cx="204.369" cy="360.114" r="5.07203" fill="#F1D8C0" fill-opacity="0.33"/>
<circle cx="221.275" cy="360.114" r="5.07203" fill="#F1D8C0" fill-opacity="0.33"/>
<circle cx="238.182" cy="360.114" r="5.07203" fill="#F1D8C0" fill-opacity="0.33"/>
<circle cx="1.48732" cy="377.021" r="5.07203" fill="#F1D8C0" fill-opacity="0.33"/>
<circle cx="18.3941" cy="377.021" r="5.07203" fill="#F1D8C0" fill-opacity="0.33"/>
<circle cx="35.3009" cy="377.021" r="5.07203" fill="#F1D8C0" fill-opacity="0.33"/>
<circle cx="52.2077" cy="377.021" r="5.07203" fill="#F1D8C0" fill-opacity="0.33"/>
<circle cx="69.1144" cy="377.021" r="5.07203" fill="#F1D8C0" fill-opacity="0.33"/>
<circle cx="86.0212" cy="377.021" r="5.07203" fill="#F1D8C0" fill-opacity="0.33"/>
<circle cx="102.928" cy="377.021" r="5.07203" fill="#F1D8C0" fill-opacity="0.33"/>
<circle cx="119.835" cy="377.021" r="5.07203" fill="#F1D8C0" fill-opacity="0.33"/>
<circle cx="136.742" cy="377.021" r="5.07203" fill="#F1D8C0" fill-opacity="0.33"/>
<circle cx="153.648" cy="377.021" r="5.07203" fill="#F1D8C0" fill-opacity="0.33"/>
<circle cx="170.555" cy="377.021" r="5.07203" fill="#F1D8C0" fill-opacity="0.33"/>
<circle cx="187.462" cy="377.021" r="5.07203" fill="#F1D8C0" fill-opacity="0.33"/>
<circle cx="204.369" cy="377.021" r="5.07203" fill="#F1D8C0" fill-opacity="0.33"/>
<circle cx="221.275" cy="377.021" r="5.07203" fill="#F1D8C0" fill-opacity="0.33"/>
<circle cx="238.182" cy="377.021" r="5.07203" fill="#F1D8C0" fill-opacity="0.33"/>
<circle cx="1.48732" cy="393.928" r="5.07203" fill="#F1D8C0" fill-opacity="0.33"/>
<circle cx="18.3941" cy="393.928" r="5.07203" fill="#F1D8C0" fill-opacity="0.33"/>
<circle cx="35.3009" cy="393.928" r="5.07203" fill="#F1D8C0" fill-opacity="0.33"/>
<circle cx="52.2077" cy="393.928" r="5.07203" fill="#F1D8C0" fill-opacity="0.33"/>
<circle cx="69.1144" cy="393.928" r="5.07203" fill="#F1D8C0" fill-opacity="0.33"/>
<circle cx="86.0212" cy="393.928" r="5.07203" fill="#F1D8C0" fill-opacity="0.33"/>
<circle cx="102.928" cy="393.928" r="5.07203" fill="#F1D8C0" fill-opacity="0.33"/>
<circle cx="119.835" cy="393.928" r="5.07203" fill="#F1D8C0" fill-opacity="0.33"/>
<circle cx="136.742" cy="393.928" r="5.07203" fill="#F1D8C0" fill-opacity="0.33"/>
<circle cx="153.648" cy="393.928" r="5.07203" fill="#F1D8C0" fill-opacity="0.33"/>
<circle cx="170.555" cy="393.928" r="5.07203" fill="#F1D8C0" fill-opacity="0.33"/>
<circle cx="187.462" cy="393.928" r="5.07203" fill="#F1D8C0" fill-opacity="0.33"/>
<circle cx="204.369" cy="393.928" r="5.07203" fill="#F1D8C0" fill-opacity="0.33"/>
<circle cx="221.275" cy="393.928" r="5.07203" fill="#F1D8C0" fill-opacity="0.33"/>
<circle cx="238.182" cy="393.928" r="5.07203" fill="#F1D8C0" fill-opacity="0.33"/>
</g>
</svg>
